<?xml version="1.0" encoding="UTF-8"?>
<svg width="97px" height="24px" viewBox="0 0 97 24" version="1.1" xmlns="http://www.w3.org/2000/svg" xmlns:xlink="http://www.w3.org/1999/xlink">
    <!-- Generator: Sketch 53 (72520) - https://sketchapp.com -->
    <title>Regal Logo</title>
    <desc>Created with Sketch.</desc>
    <defs>
        <path d="M4,14 C4.55228475,14 5,14.4477153 5,15 C5,15.5522847 4.55228475,16 4,16 L3,16 C1.34314575,16 0,14.6568542 0,13 L0,3 C-3.33066907e-16,1.34314575 1.34314575,0 3,0 L19,0 C20.6568542,0 22,1.34314575 22,3 L22,13 C22,14.6568542 20.6568542,16 19,16 L18,16 C17.4477153,16 17,15.5522847 17,15 C17,14.4477153 17.4477153,14 18,14 L19,14 C19.5522847,14 20,13.5522847 20,13 L20,3 C20,2.44771525 19.5522847,2 19,2 L3,2 C2.44771525,2 2,2.44771525 2,3 L2,13 C2,13.5522847 2.44771525,14 3,14 L4,14 Z M11.7682213,12.3598156 L16.7682213,18.3598156 C17.3109937,19.0111425 16.8478376,20 16,20 L6,20 C5.15216235,20 4.68900628,19.0111425 5.23177872,18.3598156 L10.2317787,12.3598156 C10.6315738,11.8800615 11.3684262,11.8800615 11.7682213,12.3598156 Z M8.13504161,18 L13.8649584,18 L11,14.5620499 L8.13504161,18 Z" id="path-1"></path>
    </defs>
    <g id="Symbols" stroke="none" stroke-width="1" fill="none" fill-rule="evenodd">
        <g id="Regal-Logo">
            <g id="Logo_mini-Copy">
                <g id="airplay" transform="translate(11.000000, 10.000000) scale(1, -1) translate(-11.000000, -10.000000) ">
                    <mask id="mask-2" fill="white">
                        <use xlink:href="#path-1"></use>
                    </mask>
                    <use id="Combined-Shape" fill="#FFFFFF" fill-rule="nonzero" xlink:href="#path-1"></use>
                </g>
            </g>
            <path d="M33,1.43359375 L36.4804688,1.43359375 C38.3867283,1.43359375 39.7441366,1.60351393 40.5527344,1.94335938 C41.3613322,2.28320482 42.0117163,2.8476523 42.5039062,3.63671875 C42.9960962,4.4257852 43.2421875,5.35936961 43.2421875,6.4375 C43.2421875,7.57031816 42.9707058,8.51757432 42.4277344,9.27929688 C41.8847629,10.0410194 41.0664117,10.6171855 39.9726562,11.0078125 L44.0507812,18.671875 L40.4648438,18.671875 L36.5859375,11.3710938 L36.28125,11.3710938 L36.28125,18.671875 L33,18.671875 L33,1.43359375 Z M36.28125,8.171875 L37.3125,8.171875 C38.3593802,8.171875 39.0800762,8.03515762 39.4746094,7.76171875 C39.8691426,7.48827988 40.0664062,7.03515941 40.0664062,6.40234375 C40.0664062,6.02734187 39.968751,5.70117326 39.7734375,5.42382812 C39.578124,5.14648299 39.3164079,4.94726623 38.9882812,4.82617188 C38.6601546,4.70507752 38.0585981,4.64453125 37.1835938,4.64453125 L36.28125,4.64453125 L36.28125,8.171875 Z M59.1210938,13.2226562 L48.84375,13.2226562 C48.9921882,14.1289108 49.3886687,14.8496067 50.0332031,15.3847656 C50.6777376,15.9199246 51.499995,16.1875 52.5,16.1875 C53.6953185,16.1875 54.722652,15.7695354 55.5820312,14.9335938 L58.2773438,16.1992188 C57.6054654,17.1523485 56.8007859,17.8574196 55.8632812,18.3144531 C54.9257766,18.7714867 53.8125064,19 52.5234375,19 C50.5234275,19 48.8945375,18.3691469 47.6367188,17.1074219 C46.3789,15.8456968 45.75,14.2656345 45.75,12.3671875 C45.75,10.4218653 46.3769469,8.80664705 47.6308594,7.52148438 C48.8847719,6.2363217 50.4570218,5.59375 52.3476562,5.59375 C54.3554788,5.59375 55.988275,6.2363217 57.2460938,7.52148438 C58.5039125,8.80664705 59.1328125,10.5038957 59.1328125,12.6132812 L59.1210938,13.2226562 Z M55.9101562,10.703125 C55.6992177,9.99218395 55.2832062,9.41406473 54.6621094,8.96875 C54.0410125,8.52343527 53.3203166,8.30078125 52.5,8.30078125 C51.6093705,8.30078125 50.8281284,8.55077875 50.15625,9.05078125 C49.7343729,9.36328281 49.3437518,9.91405855 48.984375,10.703125 L55.9101562,10.703125 Z M71.1328125,5.921875 L74.3203125,5.921875 L74.3203125,16.84375 C74.3203125,19.0000108 73.8867231,20.5859324 73.0195312,21.6015625 C71.8554629,22.9765694 70.1015742,23.6640625 67.7578125,23.6640625 C66.5078062,23.6640625 65.4570355,23.5078141 64.6054688,23.1953125 C63.753902,22.8828109 63.0351592,22.4238312 62.4492188,21.8183594 C61.8632783,21.2128876 61.4296889,20.4765668 61.1484375,19.609375 L64.6757812,19.609375 C64.9882828,19.9687518 65.3906225,20.2402335 65.8828125,20.4238281 C66.3750025,20.6074228 66.9570279,20.6992188 67.6289062,20.6992188 C68.4882855,20.6992188 69.1796849,20.5664076 69.703125,20.3007812 C70.2265651,20.0351549 70.5957021,19.6914084 70.8105469,19.2695312 C71.0253917,18.8476541 71.1328125,18.1210989 71.1328125,17.0898438 C70.5703097,17.6523466 69.9804718,18.0566394 69.3632812,18.3027344 C68.7460907,18.5488294 68.0468789,18.671875 67.265625,18.671875 C65.5546789,18.671875 64.1093809,18.0546937 62.9296875,16.8203125 C61.7499941,15.5859313 61.1601562,14.023447 61.1601562,12.1328125 C61.1601562,10.1093649 61.78515,8.48438113 63.0351562,7.2578125 C64.1679744,6.14843195 65.5195234,5.59375 67.0898438,5.59375 C67.8242224,5.59375 68.5175749,5.72851428 69.1699219,5.99804688 C69.8222689,6.26757947 70.4765592,6.71093441 71.1328125,7.328125 L71.1328125,5.921875 Z M67.8164062,8.58203125 C66.8085887,8.58203125 65.9765658,8.9199185 65.3203125,9.59570312 C64.6640592,10.2714878 64.3359375,11.1210886 64.3359375,12.1445312 C64.3359375,13.2070366 64.6718716,14.0781216 65.34375,14.7578125 C66.0156284,15.4375034 66.8593699,15.7773438 67.875,15.7773438 C68.8671925,15.7773438 69.6855437,15.4453158 70.3300781,14.78125 C70.9746126,14.1171842 71.296875,13.2460991 71.296875,12.1679688 C71.296875,11.1054634 70.9726595,10.2421908 70.3242188,9.578125 C69.675778,8.91405918 68.8398489,8.58203125 67.8164062,8.58203125 Z M86.9765625,5.921875 L90.1640625,5.921875 L90.1640625,18.671875 L86.9765625,18.671875 L86.9765625,17.3242188 C86.3515594,17.9179717 85.7246125,18.3457018 85.0957031,18.6074219 C84.4667937,18.8691419 83.7851599,19 83.0507812,19 C81.4023355,19 79.9765685,18.3613345 78.7734375,17.0839844 C77.5703065,15.8066342 76.96875,14.2187595 76.96875,12.3203125 C76.96875,10.3515527 77.5507754,8.73828754 78.7148438,7.48046875 C79.8789121,6.22264996 81.2929604,5.59375 82.9570312,5.59375 C83.7226601,5.59375 84.4414029,5.7382798 85.1132812,6.02734375 C85.7851596,6.3164077 86.4062471,6.74999711 86.9765625,7.328125 L86.9765625,5.921875 Z M83.6132812,8.546875 C82.6210888,8.546875 81.7968783,8.89648088 81.140625,9.59570312 C80.4843717,10.2949254 80.15625,11.1914008 80.15625,12.2851562 C80.15625,13.3867243 80.490231,14.2929652 81.1582031,15.0039062 C81.8261752,15.7148473 82.6484326,16.0703125 83.625,16.0703125 C84.6328175,16.0703125 85.4687467,15.7207066 86.1328125,15.0214844 C86.7968783,14.3222621 87.1289062,13.4062557 87.1289062,12.2734375 C87.1289062,11.164057 86.7968783,10.2656284 86.1328125,9.578125 C85.4687467,8.89062156 84.6289113,8.546875 83.6132812,8.546875 Z M93.0585938,1 L96.2578125,1 L96.2578125,18.671875 L93.0585938,18.671875 L93.0585938,1 Z" id="Regal-Copy-2" fill="#FFFFFF" fill-rule="nonzero"></path>
        </g>
    </g>
</svg>